<?xml version="1.0" encoding="utf-8"?>
<!-- Svg Vector Icons : http://www.onlinewebfonts.com/icon -->
<!DOCTYPE svg PUBLIC "-//W3C//DTD SVG 1.1//EN" "http://www.w3.org/Graphics/SVG/1.1/DTD/svg11.dtd">
<svg version="1.1" xmlns="http://www.w3.org/2000/svg" xmlns:xlink="http://www.w3.org/1999/xlink" x="0px" y="0px" viewBox="0 0 1000 1000" enable-background="new 0 0 1000 1000" xml:space="preserve">
<metadata> Svg Vector Icons : http://www.onlinewebfonts.com/icon </metadata>
<g><path d="M988.5,880.5c-4.1-37.9-22-69.9-36.3-95.7c-5.1-9.1-9.8-17.6-13.4-25.3c-7.8-16.8-3.9-43.9-0.2-70.1c0.8-5.9,1.7-11.9,2.4-17.7c0.4-2.8,0.8-6.2,1.4-10.1c6.9-49.6,25.2-181.4-22.6-309.3C874.3,230.8,771.9,152.6,723.6,124c15.9-7.5,40.9-14.6,56.8-17.8c11.8-2.4,21.8-10.4,26.5-21.6c4.7-11.1,3.7-23.9-2.9-34c-6.2-9.7-27.2-33-89-41.2c-74.9-9.9-115.5,5.2-197.4,35.8c-48,17.9-71.4,20.4-98.4,23.3c-23,2.4-49,5.2-90.4,16.8c-119.1,33.4-175.2,83.5-207,118.2c-24.8,27.1-31.5,54.8-30.1,77.2c-5.9,3.3-12.4,6.9-18.9,10.7c-43.7,25.2-58.8,36.9-62.3,57c-2.6,14.8,2.2,30.2,13.3,43.5c13.8,16.5,34.3,26.3,54.9,26.3l1.6,0c11.3-0.3,26.2-3.8,51.7-9.9c22.5-5.4,50.5-12.2,71.8-14.5c27-2.9,54,2.7,94.7,11.5c12.1,2.6,25.7,5.5,40.7,8.5c19.3,3.8,39.4,5.8,59.7,5.8c17.3,0,32.7-1.4,45.2-3.1c9.1,18.7,24.1,43.1,48.4,74.9c63.3,83,131.6,86,139.2,86c13.7,0.2,26.6-7.5,32.9-19.7c6.3-12.3,5.2-27-2.9-38.1c-0.2-0.2-16.4-23.6-22.9-61.1c-1.9-10.7-2.4-20.5-2.2-29.1c24.9,8.3,56.3,21.4,81.6,39.8c43.5,31.6,72.5,113.3,81.1,175.8c3.3,24.2,2.3,37.3,1.1,43.5c-0.2,0-0.5,0-0.7,0c-3.9-0.2-8.7-0.4-14.6-0.4c-15.3,0-31.9,1.6-50.7,4.9c-61.1,10.6-99.2,54.1-103.4,59c-9.6,11.4-11.9,27.4-5,40.6c6.8,13.1,20.3,20.8,35,19.5l0.7,0c3.2,0,15.4,0.3,38.8,4.1c14,2.3,21.4,6.3,30.7,11.4c8,4.3,17,9.2,29,12.5c9.4,2.6,19.2,4,28.2,4.8c2.6,5.4,5.8,11.3,10,17.4c13.4,19.9,35.7,31.5,57.2,42.6c8.5,4.4,16.5,8.6,23.2,12.9c7.9,5,24.9,31.1,35.8,54.7c6,13.1,19,21.3,33.2,21.3c0.9,0,1.8,0,2.7-0.1c15.3-1.1,28.2-11.7,32.4-26.4C984.2,963.3,993.6,928.7,988.5,880.5z M233.9,315.9l-7.3,2.2c-3.5,1-7,1.5-10.4,1.5c-15.8,0-30.3-10.3-35-26.2c-5.7-19.4,5.3-39.7,24.7-45.5l7.3-2.2c19.4-5.8,39.7,5.3,45.5,24.7C264.3,289.8,253.3,310.2,233.9,315.9z"/><g></g><g></g><g></g><g></g><g></g><g></g><g></g><g></g><g></g><g></g><g></g><g></g><g></g><g></g><g></g></g>
</svg>